<svg width="39" height="37" viewBox="0 0 39 37" fill="none" xmlns="http://www.w3.org/2000/svg">
<g filter="url(#filter0_d)">
<path fill-rule="evenodd" clip-rule="evenodd" d="M19.5 0C10.9362 0 4 6.93625 4 15.5C4 22.3587 8.43687 28.1519 14.5981 30.2056C15.3731 30.3412 15.6637 29.8762 15.6637 29.4694C15.6637 29.1012 15.6444 27.8806 15.6444 26.5825C11.75 27.2994 10.7425 25.6331 10.4325 24.7612C10.2581 24.3156 9.5025 22.94 8.84375 22.5719C8.30125 22.2812 7.52625 21.5644 8.82437 21.545C10.045 21.5256 10.9169 22.6687 11.2075 23.1337C12.6025 25.4781 14.8306 24.8194 15.7219 24.4125C15.8575 23.405 16.2644 22.7269 16.71 22.3394C13.2612 21.9519 9.6575 20.615 9.6575 14.6862C9.6575 13.0006 10.2581 11.6056 11.2463 10.5206C11.0912 10.1331 10.5487 8.54437 11.4012 6.41313C11.4012 6.41313 12.6994 6.00625 15.6637 8.00187C16.9037 7.65312 18.2212 7.47875 19.5387 7.47875C20.8562 7.47875 22.1737 7.65312 23.4137 8.00187C26.3781 5.98688 27.6762 6.41313 27.6762 6.41313C28.5287 8.54437 27.9862 10.1331 27.8313 10.5206C28.8194 11.6056 29.42 12.9812 29.42 14.6862C29.42 20.6344 25.7969 21.9519 22.3481 22.3394C22.91 22.8237 23.3944 23.7537 23.3944 25.2069C23.3944 27.28 23.375 28.9462 23.375 29.4694C23.375 29.8762 23.6656 30.3606 24.4406 30.2056C27.5176 29.1668 30.1914 27.1892 32.0856 24.5512C33.9798 21.9132 34.9991 18.7476 35 15.5C35 6.93625 28.0637 0 19.5 0Z" fill="white"/>
</g>
<defs>
<filter id="filter0_d" x="0" y="0" width="39" height="39" filterUnits="userSpaceOnUse" color-interpolation-filters="sRGB">
<feFlood flood-opacity="0" result="BackgroundImageFix"/>
<feColorMatrix in="SourceAlpha" type="matrix" values="0 0 0 0 0 0 0 0 0 0 0 0 0 0 0 0 0 0 127 0" result="hardAlpha"/>
<feOffset dy="4"/>
<feGaussianBlur stdDeviation="2"/>
<feComposite in2="hardAlpha" operator="out"/>
<feColorMatrix type="matrix" values="0 0 0 0 0 0 0 0 0 0 0 0 0 0 0 0 0 0 0.25 0"/>
<feBlend mode="normal" in2="BackgroundImageFix" result="effect1_dropShadow"/>
<feBlend mode="normal" in="SourceGraphic" in2="effect1_dropShadow" result="shape"/>
</filter>
</defs>
</svg>
