<svg width="39" height="38" viewBox="0 0 39 38" fill="none" xmlns="http://www.w3.org/2000/svg">
<g filter="url(#filter0_d)">
<path d="M27.777 5.363C27.4091 5.363 27.0495 5.47209 26.7436 5.67647C26.4378 5.88085 26.1994 6.17134 26.0586 6.51121C25.9178 6.85108 25.881 7.22506 25.9527 7.58587C26.0245 7.94667 26.2017 8.27809 26.4618 8.53822C26.7219 8.79834 27.0533 8.97549 27.4141 9.04726C27.7749 9.11903 28.1489 9.0822 28.4888 8.94142C28.8287 8.80064 29.1192 8.56224 29.3235 8.25636C29.5279 7.95049 29.637 7.59087 29.637 7.223C29.637 6.7297 29.441 6.2566 29.0922 5.90778C28.7434 5.55896 28.2703 5.363 27.777 5.363ZM34.907 9.114C34.8769 7.82796 34.636 6.55557 34.194 5.3475C33.7999 4.31386 33.1865 3.37788 32.396 2.604C31.6285 1.80951 30.6903 1.19997 29.6525 0.8215C28.4476 0.366049 27.1738 0.119675 25.886 0.0929999C24.243 -8.71079e-08 23.716 0 19.5 0C15.284 0 14.757 -8.71079e-08 13.114 0.0929999C11.8262 0.119675 10.5524 0.366049 9.3475 0.8215C8.3116 1.20381 7.37425 1.81282 6.604 2.604C5.80951 3.37153 5.19997 4.30968 4.8215 5.3475C4.36605 6.55238 4.11968 7.82619 4.093 9.114C4 10.757 4 11.284 4 15.5C4 19.716 4 20.243 4.093 21.886C4.11968 23.1738 4.36605 24.4476 4.8215 25.6525C5.19997 26.6903 5.80951 27.6285 6.604 28.396C7.37425 29.1872 8.3116 29.7962 9.3475 30.1785C10.5524 30.6339 11.8262 30.8803 13.114 30.907C14.757 31 15.284 31 19.5 31C23.716 31 24.243 31 25.886 30.907C27.1738 30.8803 28.4476 30.6339 29.6525 30.1785C30.6903 29.8 31.6285 29.1905 32.396 28.396C33.19 27.625 33.8039 26.6882 34.194 25.6525C34.636 24.4444 34.8769 23.172 34.907 21.886C34.907 20.243 35 19.716 35 15.5C35 11.284 35 10.757 34.907 9.114ZM32.117 21.7C32.1057 22.6839 31.9275 23.6587 31.59 24.583C31.3425 25.2576 30.945 25.8671 30.4275 26.3655C29.9248 26.8778 29.3165 27.2745 28.645 27.528C27.7207 27.8655 26.7459 28.0437 25.762 28.055C24.212 28.1325 23.6385 28.148 19.562 28.148C15.4855 28.148 14.912 28.148 13.362 28.055C12.3404 28.0741 11.3231 27.9168 10.355 27.59C9.71296 27.3235 9.1326 26.9278 8.65 26.4275C8.13554 25.9296 7.74301 25.3195 7.503 24.645C7.12458 23.7075 6.91469 22.7105 6.883 21.7C6.883 20.15 6.79 19.5765 6.79 15.5C6.79 11.4235 6.79 10.85 6.883 9.3C6.88995 8.29414 7.07357 7.29731 7.4255 6.355C7.69837 5.70076 8.11721 5.11757 8.65 4.65C9.12091 4.11706 9.7029 3.6938 10.355 3.41C11.2998 3.06907 12.2956 2.89087 13.3 2.883C14.85 2.883 15.4235 2.79 19.5 2.79C23.5765 2.79 24.15 2.79 25.7 2.883C26.6839 2.89428 27.6587 3.07248 28.583 3.41C29.2874 3.67141 29.9196 4.09641 30.4275 4.65C30.9354 5.12613 31.3323 5.70824 31.59 6.355C31.9345 7.29885 32.1128 8.29526 32.117 9.3C32.1945 10.85 32.21 11.4235 32.21 15.5C32.21 19.5765 32.1945 20.15 32.117 21.7ZM19.5 7.5485C17.928 7.55156 16.3922 8.02052 15.0866 8.8961C13.781 9.77168 12.7643 11.0146 12.1648 12.4678C11.5654 13.921 11.4101 15.5193 11.7187 17.0607C12.0272 18.6022 12.7858 20.0175 13.8984 21.128C15.0111 22.2385 16.4279 22.9943 17.9699 23.2998C19.5119 23.6054 21.1099 23.447 22.562 22.8447C24.014 22.2424 25.255 21.2233 26.128 19.916C27.001 18.6087 27.467 17.072 27.467 15.5C27.4691 14.4539 27.2643 13.4177 26.8644 12.4511C26.4646 11.4844 25.8776 10.6064 25.1371 9.86738C24.3967 9.1284 23.5175 8.5431 22.5501 8.14514C21.5827 7.74718 20.5461 7.54441 19.5 7.5485ZM19.5 20.6615C18.4792 20.6615 17.4812 20.3588 16.6324 19.7916C15.7836 19.2245 15.1221 18.4184 14.7314 17.4752C14.3407 16.5321 14.2385 15.4943 14.4377 14.493C14.6368 13.4918 15.1284 12.5721 15.8503 11.8503C16.5721 11.1284 17.4918 10.6368 18.493 10.4377C19.4943 10.2385 20.5321 10.3407 21.4752 10.7314C22.4184 11.1221 23.2245 11.7836 23.7916 12.6324C24.3588 13.4812 24.6615 14.4792 24.6615 15.5C24.6615 16.1778 24.528 16.849 24.2686 17.4752C24.0092 18.1014 23.629 18.6704 23.1497 19.1497C22.6704 19.629 22.1014 20.0092 21.4752 20.2686C20.849 20.528 20.1778 20.6615 19.5 20.6615Z" fill="white"/>
</g>
<defs>
<filter id="filter0_d" x="0" y="0" width="39" height="39" filterUnits="userSpaceOnUse" color-interpolation-filters="sRGB">
<feFlood flood-opacity="0" result="BackgroundImageFix"/>
<feColorMatrix in="SourceAlpha" type="matrix" values="0 0 0 0 0 0 0 0 0 0 0 0 0 0 0 0 0 0 127 0" result="hardAlpha"/>
<feOffset dy="4"/>
<feGaussianBlur stdDeviation="2"/>
<feComposite in2="hardAlpha" operator="out"/>
<feColorMatrix type="matrix" values="0 0 0 0 0 0 0 0 0 0 0 0 0 0 0 0 0 0 0.25 0"/>
<feBlend mode="normal" in2="BackgroundImageFix" result="effect1_dropShadow"/>
<feBlend mode="normal" in="SourceGraphic" in2="effect1_dropShadow" result="shape"/>
</filter>
</defs>
</svg>
