<svg width="37" height="36" viewBox="0 0 37 36" fill="none" xmlns="http://www.w3.org/2000/svg">
<g filter="url(#filter0_d)">
<path fill-rule="evenodd" clip-rule="evenodd" d="M4.29175 3.66608C4.29175 3.03643 4.54187 2.43258 4.9871 1.98735C5.43233 1.54212 6.03619 1.292 6.66583 1.292H30.3317C30.6438 1.29149 30.9529 1.35253 31.2413 1.47162C31.5297 1.59072 31.7918 1.76553 32.0125 1.98605C32.2333 2.20658 32.4084 2.46848 32.5278 2.75676C32.6472 3.04504 32.7086 3.35404 32.7084 3.66608V27.332C32.7088 27.6441 32.6476 27.9532 32.5283 28.2416C32.4091 28.53 32.2341 28.7921 32.0135 29.0129C31.7929 29.2336 31.5309 29.4087 31.2426 29.5281C30.9542 29.6475 30.6451 29.7088 30.333 29.7087H6.66583C6.35395 29.7087 6.04513 29.6472 5.75701 29.5278C5.46889 29.4084 5.20712 29.2334 4.98664 29.0129C4.76617 28.7923 4.59133 28.5304 4.47209 28.2422C4.35286 27.954 4.29158 27.6452 4.29175 27.3333V3.66608ZM15.5396 12.1265H19.3875V14.0588C19.9429 12.948 21.3637 11.9482 23.4988 11.9482C27.5921 11.9482 28.5622 14.1609 28.5622 18.2206V25.7407H24.4198V19.1454C24.4198 16.8333 23.8644 15.5287 22.4539 15.5287C20.497 15.5287 19.6832 16.9354 19.6832 19.1454V25.7407H15.5396V12.1265ZM8.43542 25.5637H12.5791V11.9482H8.43542V25.5624V25.5637ZM13.172 7.5075C13.1798 7.86228 13.1166 8.21505 12.9863 8.54511C12.8559 8.87517 12.6609 9.17586 12.4128 9.42954C12.1646 9.68322 11.8683 9.88477 11.5412 10.0224C11.2141 10.16 10.8628 10.2309 10.5079 10.2309C10.153 10.2309 9.80173 10.16 9.47462 10.0224C9.14751 9.88477 8.85119 9.68322 8.60303 9.42954C8.35488 9.17586 8.15989 8.87517 8.02952 8.54511C7.89915 8.21505 7.83602 7.86228 7.84383 7.5075C7.85917 6.8111 8.14658 6.14839 8.64452 5.6613C9.14246 5.1742 9.81133 4.90145 10.5079 4.90145C11.2045 4.90145 11.8733 5.1742 12.3713 5.6613C12.8692 6.14839 13.1566 6.8111 13.172 7.5075Z" fill="white"/>
</g>
<defs>
<filter id="filter0_d" x="-1" y="0" width="39" height="39" filterUnits="userSpaceOnUse" color-interpolation-filters="sRGB">
<feFlood flood-opacity="0" result="BackgroundImageFix"/>
<feColorMatrix in="SourceAlpha" type="matrix" values="0 0 0 0 0 0 0 0 0 0 0 0 0 0 0 0 0 0 127 0" result="hardAlpha"/>
<feOffset dy="4"/>
<feGaussianBlur stdDeviation="2"/>
<feComposite in2="hardAlpha" operator="out"/>
<feColorMatrix type="matrix" values="0 0 0 0 0 0 0 0 0 0 0 0 0 0 0 0 0 0 0.25 0"/>
<feBlend mode="normal" in2="BackgroundImageFix" result="effect1_dropShadow"/>
<feBlend mode="normal" in="SourceGraphic" in2="effect1_dropShadow" result="shape"/>
</filter>
</defs>
</svg>
